HIERARCHY
ROOT Hip
{
	OFFSET 0.000000 0.000000 0.000000
	CHANNELS 6 Xposition Yposition Zposition Xrotation Yrotation Zrotation
	JOINT LowerSpine
	{
		OFFSET 0.000000 5.515799 9.266301
		CHANNELS 6 Xposition Yposition Zposition Xrotation Yrotation Zrotation
		JOINT MiddleSpine
		{
			OFFSET 0.000000 -0.397602 8.456199
			CHANNELS 6 Xposition Yposition Zposition Xrotation Yrotation Zrotation
			JOINT Chest
			{
				OFFSET 0.000000 2.096198 10.463503
				CHANNELS 6 Xposition Yposition Zposition Xrotation Yrotation Zrotation
				JOINT Neck
				{
					OFFSET 0.000000 0.441296 23.579298
					CHANNELS 6 Xposition Yposition Zposition Xrotation Yrotation Zrotation
					JOINT Head
					{
						OFFSET -0.000100 -3.621802 13.315502
						CHANNELS 6 Xposition Yposition Zposition Xrotation Yrotation Zrotation
						End Site
						{
							OFFSET 0.000100 -0.555403 18.605103
						}
					}
				}
				JOINT LClavicle
				{
					OFFSET 2.142500 -7.016503 22.755198
					CHANNELS 6 Xposition Yposition Zposition Xrotation Yrotation Zrotation
					JOINT LShoulder
					{
						OFFSET 12.516600 5.281299 3.263901
						CHANNELS 6 Xposition Yposition Zposition Xrotation Yrotation Zrotation
						JOINT LForearm
						{
							OFFSET 29.541901 0.256001 -0.104698
							CHANNELS 6 Xposition Yposition Zposition Xrotation Yrotation Zrotation
							JOINT LHand
							{
								OFFSET 24.644199 0.147600 0.071499
								CHANNELS 6 Xposition Yposition Zposition Xrotation Yrotation Zrotation
								JOINT LFinger1
								{
									OFFSET 9.551399 -2.652900 0.835300
									CHANNELS 6 Xposition Yposition Zposition Xrotation Yrotation Zrotation
									JOINT LFinger11
									{
										OFFSET 3.572701 -0.629500 -0.871201
										CHANNELS 6 Xposition Yposition Zposition Xrotation Yrotation Zrotation
										JOINT LFinger12
										{
											OFFSET 2.439003 -0.429900 -0.594898
											CHANNELS 6 Xposition Yposition Zposition Xrotation Yrotation Zrotation
											End Site
											{
												OFFSET 1.735603 -0.281500 -0.518101
											}
										}
									}
								}
								JOINT LFinger2
								{
									OFFSET 9.693901 -0.231000 0.964600
									CHANNELS 6 Xposition Yposition Zposition Xrotation Yrotation Zrotation
									JOINT LFinger21
									{
										OFFSET 4.417397 0.026100 0.012299
										CHANNELS 6 Xposition Yposition Zposition Xrotation Yrotation Zrotation
										JOINT LFinger22
										{
											OFFSET 2.448601 0.014900 0.007500
											CHANNELS 6 Xposition Yposition Zposition Xrotation Yrotation Zrotation
											End Site
											{
												OFFSET 2.199303 -0.002900 -0.155300
											}
										}
									}
								}
								JOINT LFinger3
								{
									OFFSET 9.186996 2.173501 0.643799
									CHANNELS 6 Xposition Yposition Zposition Xrotation Yrotation Zrotation
									JOINT LFinger31
									{
										OFFSET 4.008400 0.251000 -0.202900
										CHANNELS 6 Xposition Yposition Zposition Xrotation Yrotation Zrotation
										JOINT LFinger32
										{
											OFFSET 2.284203 0.143500 -0.114899
											CHANNELS 6 Xposition Yposition Zposition Xrotation Yrotation Zrotation
											End Site
											{
												OFFSET 2.019600 0.095500 -0.248299
											}
										}
									}
								}
								JOINT LFinger4
								{
									OFFSET 8.525200 3.753601 -0.647800
									CHANNELS 6 Xposition Yposition Zposition Xrotation Yrotation Zrotation
									JOINT LFinger41
									{
										OFFSET 2.465500 0.680600 -0.514198
										CHANNELS 6 Xposition Yposition Zposition Xrotation Yrotation Zrotation
										JOINT LFinger42
										{
											OFFSET 1.807999 0.499400 -0.376499
											CHANNELS 6 Xposition Yposition Zposition Xrotation Yrotation Zrotation
											End Site
											{
												OFFSET 1.604698 0.368200 -0.440899
											}
										}
									}
								}
								JOINT LFinger0
								{
									OFFSET 1.975899 -1.497900 -1.495499
									CHANNELS 6 Xposition Yposition Zposition Xrotation Yrotation Zrotation
									JOINT LFinger01
									{
										OFFSET 3.678703 -2.773500 -1.208099
										CHANNELS 6 Xposition Yposition Zposition Xrotation Yrotation Zrotation
										JOINT LFinger02
										{
											OFFSET 2.422401 -1.745200 -0.866798
											CHANNELS 6 Xposition Yposition Zposition Xrotation Yrotation Zrotation
											End Site
											{
												OFFSET 1.781303 -1.219800 -0.613201
											}
										}
									}
								}
							}
						}
					}
				}
				JOINT RClavicle
				{
					OFFSET -2.142500 -7.016403 22.755198
					CHANNELS 6 Xposition Yposition Zposition Xrotation Yrotation Zrotation
					JOINT RShoulder
					{
						OFFSET -12.518800 5.282199 3.264500
						CHANNELS 6 Xposition Yposition Zposition Xrotation Yrotation Zrotation
						JOINT RForearm
						{
							OFFSET -29.541901 0.256001 -0.104698
							CHANNELS 6 Xposition Yposition Zposition Xrotation Yrotation Zrotation
							JOINT RHand
							{
								OFFSET -24.644196 0.147600 0.071499
								CHANNELS 6 Xposition Yposition Zposition Xrotation Yrotation Zrotation
								JOINT RFinger1
								{
									OFFSET -9.551399 -2.652900 0.835400
									CHANNELS 6 Xposition Yposition Zposition Xrotation Yrotation Zrotation
									JOINT RFinger11
									{
										OFFSET -3.572701 -0.629500 -0.871201
										CHANNELS 6 Xposition Yposition Zposition Xrotation Yrotation Zrotation
										JOINT RFinger12
										{
											OFFSET -2.439003 -0.429900 -0.595001
											CHANNELS 6 Xposition Yposition Zposition Xrotation Yrotation Zrotation
											End Site
											{
												OFFSET -1.735603 -0.281500 -0.518101
											}
										}
									}
								}
								JOINT RFinger2
								{
									OFFSET -9.693901 -0.231000 0.964699
									CHANNELS 6 Xposition Yposition Zposition Xrotation Yrotation Zrotation
									JOINT RFinger21
									{
										OFFSET -4.417503 0.026100 0.012299
										CHANNELS 6 Xposition Yposition Zposition Xrotation Yrotation Zrotation
										JOINT RFinger22
										{
											OFFSET -2.448601 0.015000 0.007500
											CHANNELS 6 Xposition Yposition Zposition Xrotation Yrotation Zrotation
											End Site
											{
												OFFSET -2.199303 -0.002900 -0.155300
											}
										}
									}
								}
								JOINT RFinger3
								{
									OFFSET -9.186996 2.173501 0.643799
									CHANNELS 6 Xposition Yposition Zposition Xrotation Yrotation Zrotation
									JOINT RFinger31
									{
										OFFSET -4.008400 0.251000 -0.202900
										CHANNELS 6 Xposition Yposition Zposition Xrotation Yrotation Zrotation
										JOINT RFinger32
										{
											OFFSET -2.284203 0.143500 -0.114899
											CHANNELS 6 Xposition Yposition Zposition Xrotation Yrotation Zrotation
											End Site
											{
												OFFSET -2.019600 0.095500 -0.248299
											}
										}
									}
								}
								JOINT RFinger4
								{
									OFFSET -8.525200 3.753600 -0.647800
									CHANNELS 6 Xposition Yposition Zposition Xrotation Yrotation Zrotation
									JOINT RFinger41
									{
										OFFSET -2.465500 0.680600 -0.514099
										CHANNELS 6 Xposition Yposition Zposition Xrotation Yrotation Zrotation
										JOINT RFinger42
										{
											OFFSET -1.807999 0.499400 -0.376400
											CHANNELS 6 Xposition Yposition Zposition Xrotation Yrotation Zrotation
											End Site
											{
												OFFSET -1.604698 0.368200 -0.440899
											}
										}
									}
								}
								JOINT RFinger0
								{
									OFFSET -1.975899 -1.497799 -1.495399
									CHANNELS 6 Xposition Yposition Zposition Xrotation Yrotation Zrotation
									JOINT RFinger01
									{
										OFFSET -3.678703 -2.773600 -1.208302
										CHANNELS 6 Xposition Yposition Zposition Xrotation Yrotation Zrotation
										JOINT RFinger02
										{
											OFFSET -2.422302 -1.745200 -0.866699
											CHANNELS 6 Xposition Yposition Zposition Xrotation Yrotation Zrotation
											End Site
											{
												OFFSET -1.781303 -1.219800 -0.613201
											}
										}
									}
								}
							}
						}
					}
				}
			}
		}
	}
	JOINT RThigh
	{
		OFFSET -10.956100 0.898699 4.188600
		CHANNELS 6 Xposition Yposition Zposition Xrotation Yrotation Zrotation
		JOINT RShin
		{
			OFFSET -0.793200 0.000007 -43.115398
			CHANNELS 6 Xposition Yposition Zposition Xrotation Yrotation Zrotation
			JOINT RFoot
			{
				OFFSET 0.000000 0.000007 -42.336796
				CHANNELS 6 Xposition Yposition Zposition Xrotation Yrotation Zrotation
				JOINT RToe
				{
					OFFSET 0.000000 -9.730399 -4.653198
					CHANNELS 6 Xposition Yposition Zposition Xrotation Yrotation Zrotation
					End Site
					{
						OFFSET 0.000000 -6.527801 0.000000
					}
				}
			}
		}
	}
	JOINT LThigh
	{
		OFFSET 10.955900 0.898799 4.188900
		CHANNELS 6 Xposition Yposition Zposition Xrotation Yrotation Zrotation
		JOINT LShin
		{
			OFFSET 0.793300 0.000007 -43.115700
			CHANNELS 6 Xposition Yposition Zposition Xrotation Yrotation Zrotation
			JOINT LFoot
			{
				OFFSET 0.000000 0.000007 -42.336796
				CHANNELS 6 Xposition Yposition Zposition Xrotation Yrotation Zrotation
				JOINT LToe
				{
					OFFSET 0.000000 -9.730499 -4.653198
					CHANNELS 6 Xposition Yposition Zposition Xrotation Yrotation Zrotation
					End Site
					{
						OFFSET 0.000000 -6.527801 0.000000
					}
				}
			}
		}
	}
}
MOTION
Frames: 4
Frame Time: 0.041667
-2.952800 58.530788 86.205322 -5.524896 -4.573098 -136.983515 0.000001 5.515801 9.266303 0.271808 2.268732 0.786568 -0.000002 -0.397599 8.456213 -0.282546 2.506454 0.913378 0.000003 2.096195 10.463508 -1.445532 2.770840 1.129027 -0.000007 0.441293 23.579304 -2.762370 -0.412384 -0.123141 -0.000097 -3.621796 13.315482 -0.160182 -0.735223 -0.023172 2.142490 -7.016505 22.755207 -0.967927 15.878902 -0.059510 12.516586 5.281303 3.263917 42.181312 54.695612 -28.516861 29.541874 0.255995 -0.104701 -0.000008 0.000007 -26.643624 24.644201 0.147600 0.071505 0.000000 0.000001 -0.000002 9.551398 -2.652892 0.835302 0.000001 -0.000000 0.000002 3.572701 -0.629498 -0.871201 0.000003 0.000000 0.000000 2.438987 -0.429889 -0.594904 -0.000003 -0.000001 0.000000 9.693901 -0.230997 0.964600 0.000001 -0.000000 0.000001 4.417405 0.026102 0.012302 0.000003 0.000001 -0.000000 2.448587 0.014899 0.007497 0.000001 0.000001 0.000001 9.186988 2.173509 0.643803 -0.000000 -0.000001 0.000001 4.008391 0.250997 -0.202908 -0.000001 -0.000001 0.000000 2.284194 0.143498 -0.114896 -0.000003 -0.000001 0.000002 8.525199 3.753603 -0.647806 -0.000001 -0.000001 0.000001 2.465492 0.680597 -0.514206 0.000002 0.000000 0.000002 1.807981 0.499398 -0.376508 0.000001 -0.000002 0.000001 1.975899 -1.497895 -1.495501 0.000004 0.000001 0.000000 3.678714 -2.773497 -1.208095 0.000001 0.000004 0.000002 2.422392 -1.745202 -0.866798 -0.000002 -0.000002 -0.000004 -2.142503 -7.016404 22.755188 0.409377 -15.369176 0.623396 -12.518787 5.282209 3.264496 -122.704553 -129.507340 -127.638190 -29.541870 0.256010 -0.104691 -0.000006 -0.000000 19.481800 -24.644194 0.147600 0.071487 0.000000 0.000001 0.000001 -9.551400 -2.652901 0.835391 -0.000001 -0.000001 -0.000002 -3.572683 -0.629500 -0.871196 0.000000 0.000003 -0.000001 -2.438993 -0.429897 -0.594993 0.000002 0.000002 -0.000001 -9.693917 -0.231000 0.964693 -0.000001 -0.000001 0.000001 -4.417510 0.026099 0.012303 -0.000000 0.000001 0.000000 -2.448601 0.014999 0.007505 0.000002 -0.000000 -0.000000 -9.186996 2.173501 0.643790 -0.000002 0.000000 -0.000001 -4.008401 0.251000 -0.202908 -0.000000 -0.000001 0.000001 -2.284218 0.143503 -0.114914 0.000000 -0.000000 0.000000 -8.525201 3.753592 -0.647808 0.000001 -0.000000 0.000001 -2.465499 0.680591 -0.514096 0.000003 0.000002 0.000003 -1.807990 0.499402 -0.376402 0.000004 0.000001 -0.000001 -1.975898 -1.497801 -1.495405 0.000003 0.000001 0.000003 -3.678713 -2.773598 -1.208315 -0.000003 -0.000003 0.000001 -2.422305 -1.745194 -0.866713 -0.000003 -0.000003 -0.000001 -10.956097 0.898705 4.188603 -16.302434 -12.069496 10.231763 -0.793202 -0.000001 -43.115395 33.650378 0.000001 0.000009 -0.000005 0.000011 -42.336788 -2.802205 0.026154 -0.024742 0.268459 -8.990527 -2.828856 -6.083591 0.000004 0.000011 10.955902 0.898802 4.188909 -12.854413 -12.209735 33.892799 0.793303 -0.000002 -43.115704 42.719698 -0.000004 0.000004 -0.000009 0.000015 -42.336807 -2.060106 -1.451583 2.895023 0.000000 -9.730499 -4.653199 -3.343364 -0.000000 -0.000000 
-2.918900 61.077084 85.772316 -5.412778 -4.189664 -142.295080 0.000003 5.515799 9.266303 0.297894 2.504209 0.830582 -0.000001 -0.397602 8.456201 -0.252025 2.758776 0.953333 0.000002 2.096200 10.463493 -1.369888 2.998371 1.138032 -0.000003 0.441295 23.579309 -3.020968 -0.471021 -0.141790 -0.000096 -3.621805 13.315503 -0.185523 -0.808955 -0.025671 2.142501 -7.016503 22.755220 -1.291987 16.308759 -0.074314 12.516590 5.281307 3.263913 45.064926 49.765445 -34.269661 29.541895 0.256005 -0.104697 -0.000006 0.000005 -19.340900 24.644192 0.147607 0.071498 -0.000001 0.000000 -0.000000 9.551414 -2.652903 0.835296 -0.000000 0.000000 -0.000001 3.572703 -0.629494 -0.871201 0.000000 0.000002 -0.000001 2.439003 -0.429880 -0.594895 0.000000 -0.000000 0.000001 9.693910 -0.231001 0.964599 -0.000000 0.000001 0.000000 4.417389 0.026095 0.012303 0.000000 -0.000000 0.000001 2.448594 0.014898 0.007498 0.000000 0.000001 0.000001 9.187012 2.173498 0.643795 -0.000003 0.000001 0.000001 4.008401 0.250988 -0.202908 0.000003 0.000001 -0.000000 2.284187 0.143496 -0.114896 -0.000001 0.000000 0.000001 8.525223 3.753598 -0.647808 -0.000002 0.000001 0.000002 2.465493 0.680598 -0.514197 0.000001 0.000002 0.000005 1.808004 0.499400 -0.376517 -0.000005 -0.000002 -0.000001 1.975938 -1.497894 -1.495496 -0.000003 0.000001 0.000001 3.678703 -2.773499 -1.208097 0.000004 -0.000000 -0.000002 2.422410 -1.745193 -0.866790 0.000001 0.000000 -0.000006 -2.142501 -7.016404 22.755213 0.472752 -15.336898 0.719924 -12.518788 5.282199 3.264501 -119.802966 -131.360479 -123.915095 -29.541906 0.256003 -0.104689 -0.000005 0.000000 17.999645 -24.644188 0.147600 0.071499 -0.000001 0.000001 0.000001 -9.551392 -2.652902 0.835403 -0.000001 0.000000 -0.000001 -3.572683 -0.629499 -0.871192 -0.000000 0.000002 -0.000001 -2.438992 -0.429898 -0.594999 0.000001 0.000004 -0.000001 -9.693892 -0.231000 0.964702 -0.000001 0.000001 0.000000 -4.417496 0.026097 0.012290 0.000001 -0.000000 -0.000000 -2.448609 0.014999 0.007497 0.000000 -0.000001 -0.000000 -9.186973 2.173502 0.643801 -0.000001 0.000001 -0.000000 -4.008400 0.251000 -0.202900 -0.000001 -0.000000 -0.000000 -2.284218 0.143501 -0.114899 -0.000000 -0.000000 0.000000 -8.525190 3.753597 -0.647807 0.000003 0.000002 0.000002 -2.465492 0.680589 -0.514101 0.000003 0.000001 0.000003 -1.807991 0.499398 -0.376404 0.000002 0.000000 0.000001 -1.975894 -1.497801 -1.495399 -0.000003 0.000005 0.000004 -3.678702 -2.773605 -1.208285 -0.000005 -0.000006 0.000003 -2.422305 -1.745209 -0.866696 -0.000001 -0.000003 0.000003 -10.956094 0.898704 4.188611 -14.775846 -14.586086 14.332288 -0.793207 -0.000007 -43.115395 34.806207 -0.000004 0.000002 -0.000005 0.000010 -42.336788 -2.441877 0.858238 -1.734747 0.250112 -8.995130 -2.970508 -6.580856 0.000002 0.000010 10.955906 0.898804 4.188906 -15.879642 -12.540659 32.432084 0.793307 -0.000003 -43.115707 42.232002 -0.000002 0.000005 0.000004 0.000020 -42.336800 -3.404600 -1.161004 2.256019 -0.000001 -9.730494 -4.653190 -6.349999 0.000001 -0.000002 
-2.877000 63.314884 85.485023 -5.626952 -3.873468 -146.956328 0.000003 5.515793 9.266285 0.323521 2.743598 0.869060 0.000005 -0.397607 8.456197 -0.221170 3.020384 0.990733 -0.000001 2.096198 10.463505 -1.284338 3.236998 1.147247 -0.000007 0.441294 23.579294 -3.282365 -0.533828 -0.162013 -0.000095 -3.621788 13.315498 -0.212653 -0.884005 -0.028257 2.142491 -7.016505 22.755194 -1.470929 16.515997 -0.081871 12.516591 5.281303 3.263904 41.471556 47.398938 -33.772413 29.541883 0.256001 -0.104704 -0.000005 0.000003 -14.516377 24.644199 0.147599 0.071498 0.000001 0.000001 -0.000000 9.551407 -2.652900 0.835302 0.000000 -0.000000 0.000001 3.572709 -0.629513 -0.871203 0.000002 0.000001 -0.000001 2.438973 -0.429894 -0.594896 -0.000000 0.000001 0.000000 9.693902 -0.231001 0.964597 0.000001 0.000001 0.000000 4.417382 0.026095 0.012299 0.000000 0.000000 -0.000000 2.448594 0.014895 0.007497 0.000000 0.000001 0.000001 9.186990 2.173500 0.643799 0.000000 0.000001 0.000001 4.008400 0.251001 -0.202907 0.000001 0.000000 -0.000001 2.284188 0.143508 -0.114898 0.000000 0.000001 0.000000 8.525208 3.753598 -0.647798 0.000002 0.000001 0.000001 2.465499 0.680600 -0.514207 -0.000002 -0.000001 0.000003 1.808012 0.499396 -0.376509 0.000002 -0.000002 -0.000002 1.975910 -1.497903 -1.495494 0.000003 0.000004 0.000000 3.678702 -2.773504 -1.208092 -0.000000 -0.000001 0.000003 2.422409 -1.745186 -0.866790 -0.000002 0.000000 -0.000000 -2.142504 -7.016403 22.755188 0.541459 -15.301758 0.824594 -12.518785 5.282204 3.264504 -116.768409 -133.709054 -119.393086 -29.541893 0.256003 -0.104706 -0.000003 0.000000 15.250318 -24.644211 0.147602 0.071498 -0.000001 -0.000000 0.000001 -9.551400 -2.652901 0.835407 -0.000000 -0.000001 -0.000001 -3.572692 -0.629508 -0.871198 0.000001 0.000001 0.000002 -2.438999 -0.429896 -0.595005 -0.000001 0.000004 -0.000000 -9.693910 -0.231001 0.964711 0.000000 -0.000001 -0.000000 -4.417495 0.026102 0.012307 -0.000000 0.000001 0.000001 -2.448609 0.014999 0.007509 0.000002 -0.000001 -0.000000 -9.186998 2.173501 0.643806 -0.000001 -0.000002 -0.000001 -4.008407 0.251001 -0.202908 0.000002 0.000001 0.000001 -2.284195 0.143500 -0.114903 -0.000000 -0.000000 -0.000000 -8.525202 3.753591 -0.647796 0.000002 -0.000002 -0.000000 -2.465499 0.680592 -0.514095 0.000004 0.000002 0.000003 -1.808003 0.499401 -0.376402 0.000001 0.000004 0.000002 -1.975906 -1.497801 -1.495390 0.000001 0.000001 0.000002 -3.678705 -2.773592 -1.208279 -0.000003 -0.000002 0.000001 -2.422313 -1.745202 -0.866701 -0.000001 -0.000004 0.000001 -10.956096 0.898697 4.188585 -14.315888 -16.985670 20.058660 -0.793200 0.000006 -43.115391 36.859963 -0.000005 0.000005 -0.000007 0.000009 -42.336796 0.610266 1.057858 -2.214840 0.270901 -8.885124 -3.013358 -10.423821 0.000002 0.000014 10.955903 0.898796 4.188892 -19.577643 -12.102163 29.289419 0.793298 -0.000000 -43.115704 39.655443 -0.000001 0.000007 0.000014 0.000017 -42.336788 -4.837210 -1.122608 2.135373 0.000004 -9.730495 -4.653198 -6.056255 -0.000001 -0.000001 
-3.303300 64.942383 85.372322 -6.338702 -3.246073 -151.196483 0.000002 5.515798 9.266304 0.348179 2.983589 0.900971 0.000001 -0.397597 8.456203 -0.191293 3.288625 1.024696 -0.000002 2.096198 10.463512 -1.190750 3.484741 1.155591 0.000001 0.441293 23.579315 -3.534709 -0.604028 -0.184765 -0.000102 -3.621805 13.315511 -0.241269 -0.959442 -0.030908 2.142499 -7.016503 22.755215 -1.641372 16.744267 -0.087855 12.516586 5.281306 3.263896 35.107230 46.259994 -30.274745 29.541887 0.256003 -0.104704 -0.000004 0.000004 -10.012180 24.644192 0.147597 0.071498 -0.000001 -0.000001 -0.000000 9.551399 -2.652899 0.835299 0.000000 0.000000 -0.000001 3.572702 -0.629507 -0.871199 0.000001 0.000001 0.000000 2.438987 -0.429901 -0.594900 -0.000000 -0.000001 0.000001 9.693909 -0.230998 0.964596 -0.000000 -0.000000 0.000000 4.417396 0.026099 0.012297 -0.000000 -0.000001 0.000000 2.448599 0.014901 0.007497 -0.000000 -0.000002 0.000000 9.186989 2.173503 0.643797 -0.000001 0.000001 0.000001 4.008393 0.251004 -0.202900 0.000001 0.000001 0.000000 2.284204 0.143496 -0.114894 0.000001 0.000001 0.000001 8.525215 3.753605 -0.647808 -0.000001 0.000000 0.000001 2.465484 0.680597 -0.514202 0.000004 0.000000 0.000002 1.807996 0.499397 -0.376505 -0.000000 -0.000003 -0.000001 1.975916 -1.497897 -1.495508 0.000003 0.000002 -0.000003 3.678717 -2.773496 -1.208090 0.000003 -0.000002 0.000006 2.422410 -1.745184 -0.866793 -0.000000 0.000001 -0.000006 -2.142499 -7.016407 22.755199 0.615026 -15.263555 0.936710 -12.518783 5.282207 3.264498 -114.972328 -135.657461 -116.841997 -29.541887 0.256002 -0.104689 0.003135 -0.000023 14.295246 -24.644203 0.147601 0.071496 -0.000001 -0.000001 0.000001 -9.551392 -2.652903 0.835412 -0.000000 0.000000 -0.000001 -3.572699 -0.629505 -0.871183 0.000002 0.000001 -0.000001 -2.438978 -0.429895 -0.595000 -0.000000 0.000002 -0.000001 -9.693893 -0.230998 0.964699 -0.000000 0.000001 0.000000 -4.417503 0.026097 0.012296 0.000002 0.000001 0.000000 -2.448608 0.014999 0.007486 0.000000 -0.000000 -0.000000 -9.186973 2.173503 0.643799 -0.000003 0.000001 -0.000000 -4.008393 0.250996 -0.202911 0.000004 -0.000000 -0.000000 -2.284203 0.143497 -0.114909 0.000001 -0.000001 -0.000001 -8.525184 3.753596 -0.647793 0.000001 0.000001 0.000001 -2.465498 0.680597 -0.514108 0.000001 0.000002 0.000003 -1.807996 0.499397 -0.376401 0.000004 0.000003 0.000002 -1.975881 -1.497798 -1.495400 -0.000003 0.000003 0.000001 -3.678733 -2.773606 -1.208306 -0.000008 0.000001 -0.000005 -2.422290 -1.745209 -0.866701 -0.000001 -0.000004 0.000003 -10.956099 0.898696 4.188602 -14.538114 -17.719121 25.264054 -0.793202 -0.000008 -43.115406 39.383089 0.000000 0.000005 -0.000009 0.000008 -42.336784 4.075819 0.104916 -0.189417 0.336068 -8.729396 -3.020864 -15.265690 -0.000002 0.000011 10.955904 0.898797 4.188894 -23.155762 -10.520803 25.820485 0.793302 0.000002 -43.115707 34.251285 -0.000003 0.000009 -0.000003 0.000017 -42.336800 -5.117284 -0.613432 1.117817 -0.000010 -9.730505 -4.653188 -2.881253 -0.000001 -0.000009 
